<svg id="smile" xmlns="http://www.w3.org/2000/svg" viewBox="0 0 20.5 20.5">
  <defs>
    <style>
      .cls-1 {
        fill: #cbcbcb;
      }
    </style>
  </defs>
  <g id="Group_21" data-name="Group 21">
    <g id="Group_20" data-name="Group 20">
      <path id="Path_201" data-name="Path 201" class="cls-1" d="M10.25,0A10.25,10.25,0,1,0,20.5,10.25,10.262,10.262,0,0,0,10.25,0Zm0,19.609a9.359,9.359,0,1,1,9.359-9.359A9.369,9.369,0,0,1,10.25,19.609Z"/>
      <path id="Path_202" data-name="Path 202" class="cls-1" d="M98.674,129.337a1.337,1.337,0,1,0-1.337,1.337A1.339,1.339,0,0,0,98.674,129.337Zm-1.783,0a.446.446,0,1,1,.446.446A.446.446,0,0,1,96.891,129.337Z" transform="translate(-90.652 -120.87)"/>
      <path id="Path_203" data-name="Path 203" class="cls-1" d="M225.337,128a1.337,1.337,0,1,0,1.337,1.337A1.339,1.339,0,0,0,225.337,128Zm0,1.783a.446.446,0,1,1,.446-.446A.446.446,0,0,1,225.337,129.783Z" transform="translate(-211.522 -120.87)"/>
      <path id="Path_204" data-name="Path 204" class="cls-1" d="M112.765,224.113a.446.446,0,0,0-.629.035,4.958,4.958,0,0,1-7.358,0,.446.446,0,1,0-.664.595,5.849,5.849,0,0,0,8.686,0A.446.446,0,0,0,112.765,224.113Z" transform="translate(-98.206 -211.521)"/>
    </g>
  </g>
</svg>
