<svg xmlns="http://www.w3.org/2000/svg" viewBox="0 0 16.677 17.961">
  <defs>
    <style>
      .cls-1 {
        fill: #cbcbcb;
      }
    </style>
  </defs>
  <path id="Forma_1" data-name="Forma 1" class="cls-1" d="M55.371,767.961a4.288,4.288,0,0,1-3.1-1.315,4.607,4.607,0,0,1,0-6.37l9.059-9.316a3.183,3.183,0,0,1,4.684.141,3.4,3.4,0,0,1,.137,4.817l-8.51,8.752a2.013,2.013,0,0,1-2.9,0,2.154,2.154,0,0,1,0-2.982l5.765-5.928a.488.488,0,0,1,.7,0,.523.523,0,0,1,0,.724l-5.765,5.928a1.108,1.108,0,0,0,0,1.534,1.037,1.037,0,0,0,1.492,0l8.51-8.752a2.382,2.382,0,0,0-.138-3.369,2.229,2.229,0,0,0-3.277-.141L52.978,761a3.563,3.563,0,0,0,0,4.922,3.329,3.329,0,0,0,4.786,0l9.059-9.316a.488.488,0,0,1,.7,0,.522.522,0,0,1,0,.724l-9.059,9.316A4.289,4.289,0,0,1,55.371,767.961Z" transform="translate(-50.996 -750)"/>
</svg>
